# xmcd
#
# Track frame offsets:
#	150
#	12524
#	25743
#	39480
#	52897
#	65428
#	80244
#	94811
#	107080
#	121684
#	135445
#	148038
#	160227
#	173431
#	187559
#	201364
#	214321
#	225827
#	238325
#	253303
#
# Disc length: 3522 seconds
#
# Revision: 3
# Processed by: cddbd v1.5.2PL0 Copyright (c) Steve Scherf et al.
# Submitted via: Antz-MP3Processor 1.0.0
#
DISCID=0c0dc014
DTITLE=Various Artist - Blues Selection, Volume 2
DYEAR=1900
DGENRE=Blues
TTITLE0=Casey Bill Weldon - Weldon Go Ahead, Buddy
TTITLE1=Leroy Carr - When the Sun Goes Down
TTITLE2=Scrapper Blackwell - Kokomo Blues
TTITLE3=Skip James - Devil Got My Woman
TTITLE4=Champion Jack Dupree - Gamblin Man Blues Champion
TTITLE5=Lonnie Johnson - Four Hands Are Better Than Two
TTITLE6=Blind Boy Fuller - Baby You Gotta Change Your Mind
TTITLE7=Roosevelt Sykes - 15C A Day
TTITLE8=Mississippi John Hurt - Spike Driver Blues
TTITLE9=Mississippi John Hurt - Avalon Blues
TTITLE10=Memphis Minnie - Moonshine
TTITLE11=Big Bill Bronzy - Mississipi River Blues
TTITLE12=Alice Moore - Grass Cutter Blues
TTITLE13=Leadbelly - Roberta
TTITLE14=Blind Willie McTell - Georgia Rag
TTITLE15=Josh White - Low Cotton
TTITLE16=Blind Boy Fuller - Bye Bye Baby Blues
TTITLE17=Sonny Terry - Train Whistle Blues
TTITLE18=Big Joe Williams - Highway Blues
TTITLE19=Sleepy John Estes - Tell Me How About It (Mr. Tom's Blues)
EXTD=Blues\n
EXTT0=
EXTT1=
EXTT2=
EXTT3=
EXTT4=
EXTT5=
EXTT6=
EXTT7=
EXTT8=
EXTT9=
EXTT10=
EXTT11=
EXTT12=
EXTT13=
EXTT14=
EXTT15=
EXTT16=
EXTT17=
EXTT18=
EXTT19=
PLAYORDER=
